<?xml version="1.0" encoding="UTF-8"?>
<svg width="500" height="500" viewBox="0 0 500 500" xmlns="http://www.w3.org/2000/svg">
  <defs>
    <pattern id="agriculture-pattern" x="0" y="0" width="100" height="100" patternUnits="userSpaceOnUse">
      <!-- Irrigation Sprinkler -->
      <path d="M20,20 C20,10 30,10 30,20 L30,30 L20,30 Z" fill="#e0e0e0" />
      <circle cx="25" cy="10" r="2" fill="#e0e0e0" />
      <path d="M25,10 C15,0 35,0 25,10" stroke="#e0e0e0" fill="none" />
      
      <!-- Tractor -->
      <path d="M70,25 L80,25 L80,30 L75,30 L70,35 L65,35 L65,30 L70,25" fill="#e0e0e0" />
      <circle cx="65" cy="35" r="3" fill="#e0e0e0" />
      <circle cx="75" cy="35" r="3" fill="#e0e0e0" />
      
      <!-- Plant -->
      <path d="M20,70 L20,80 M18,75 L22,75 M15,70 C20,65 25,70 20,75 M25,70 C20,65 15,70 20,75" stroke="#e0e0e0" fill="none" />
      
      <!-- Watering Can -->
      <path d="M60,70 L70,70 L70,75 L75,75 L75,80 L65,80 L65,75 L60,75 Z" fill="#e0e0e0" />
      <path d="M75,75 C80,70 80,60 75,65" stroke="#e0e0e0" fill="none" />
      
      <!-- Shovel -->
      <path d="M40,40 L45,45 L50,40 L45,35 Z" fill="#e0e0e0" />
      <path d="M45,45 L45,55" stroke="#e0e0e0" stroke-width="2" />
      
      <!-- Irrigation Pipe -->
      <path d="M80,60 L90,60 L90,65 L80,65 Z" fill="#e0e0e0" />
      <circle cx="85" cy="55" r="3" fill="#e0e0e0" />
      <path d="M85,55 L85,50 M83,50 L87,50" stroke="#e0e0e0" />
    </pattern>
  </defs>
  
  <rect width="100%" height="100%" fill="#f8f9fa" />
  <rect width="100%" height="100%" fill="url(#agriculture-pattern)" />
</svg> 